<?xml version="1.0" standalone="no"?><!DOCTYPE svg PUBLIC "-//W3C//DTD SVG 1.1//EN" "http://www.w3.org/Graphics/SVG/1.1/DTD/svg11.dtd"><svg t="1642500780486" class="icon" viewBox="0 0 1024 1024" version="1.1" xmlns="http://www.w3.org/2000/svg" p-id="2923" xmlns:xlink="http://www.w3.org/1999/xlink" width="128" height="128"><defs><style type="text/css"></style></defs><path d="M322.09 904.448c-3.705 0-7.436-0.792-10.935-2.402a26.158 26.158 0 0 1-15.228-23.76V766.76c0-13.847-11.268-25.115-25.14-25.115h-128.03c-42.72 0-77.467-34.747-77.467-77.44V197.005c0-42.707 34.747-77.454 77.466-77.454h738.512c42.694 0 77.441 34.747 77.441 77.454v467.2c0 42.694-34.747 77.441-77.44 77.441H530.982a25.15 25.15 0 0 0-16.402 6.08L339.105 898.138a26.007 26.007 0 0 1-17.015 6.311zM142.756 171.877c-13.873 0-25.14 11.267-25.14 25.128v467.2c0 13.848 11.267 25.116 25.14 25.116h128.03c42.718 0 77.466 34.747 77.466 77.44v54.625l132.321-113.415c14.078-12.034 31.963-18.65 50.41-18.65h350.284c13.848 0 25.115-11.268 25.115-25.115V197.005c0-13.86-11.267-25.128-25.115-25.128h-738.51z" p-id="2924"></path></svg>