<?xml version="1.0" standalone="no"?><!DOCTYPE svg PUBLIC "-//W3C//DTD SVG 1.1//EN" "http://www.w3.org/Graphics/SVG/1.1/DTD/svg11.dtd"><svg t="1642856648318" class="icon" viewBox="0 0 1024 1024" version="1.1" xmlns="http://www.w3.org/2000/svg" p-id="1004" id="mx_n_1642856648318" data-spm-anchor-id="a313x.7781069.0.i5" width="128" height="128" xmlns:xlink="http://www.w3.org/1999/xlink"><defs><style type="text/css"></style></defs><path d="M355.619484 271.172187a20.16 20.16 0 1 0 40.311935-0.806406 20.16 20.16 0 1 0-40.311935 0.806406Z" p-id="1005"></path><path d="M935.96 892.39l-98.08-94.11c23.33-6.07 42.91-28.55 55.79-64.5 12.96-36.14 18.28-83.03 15-132.01-3.28-48.99-14.82-94.74-32.48-128.83-19.91-38.44-46.05-58.62-73.57-56.75-16.57 1.11-31.58 10.07-44.08 25.91-4.58-42.48-15.39-81.67-30.98-111.77-19.91-38.44-46.05-58.61-73.57-56.75-16.57 1.11-31.58 10.07-44.08 25.91-4.58-42.48-15.39-81.67-30.98-111.77-12.29-23.73-26.96-40.49-42.86-49.4l1.4-1.46-63.66-61.09c-6.78-6.5-17.54-6.28-24.05 0.5-6.5 6.78-6.28 17.54 0.5 24.05l36.83 35.33c-19.48 8.91-35.81 30.02-47.06 61.38-12.96 36.14-18.28 83.03-15 132.02 1.67 24.86 5.46 48.88 11.1 70.98-0.33 1.74-0.41 3.56-0.17 5.42 1.08 8.29 1.08 19.51-5.07 25.92-8.66 9.03-29.46 8.55-55.64-1.28-31.62-11.87-66.73-35.39-98.88-66.24-32.15-30.85-57.1-64.96-70.27-96.06-10.9-25.75-12.24-46.51-3.58-55.54 8.52-8.87 26.51-6.6 36.47-4.46 20.56 4.42 45.69 16.28 70.76 33.38 7.76 5.29 18.34 3.3 23.63-4.46 5.29-7.76 3.3-18.34-4.46-23.63-64.99-44.34-122.82-53.68-150.95-24.37-18.92 19.72-20.06 52.52-3.2 92.35 14.92 35.25 42.64 73.38 78.04 107.35 19.14 18.36 39.39 34.42 59.62 47.43-45.38-0.1-88.12 7.12-121.27 20.58-30.63 12.43-50.97 29.46-59.19 49.09L95.28 470.3c-6.78-6.5-17.54-6.28-24.05 0.5-6.5 6.78-6.28 17.54 0.5 24.05l63.66 61.09 1.08-1.13c9.57 15.52 26.91 29.48 51.13 40.78 30.72 14.34 70.32 23.52 112.96 26.34-15.31 13.15-23.64 28.51-24.06 45.12-0.71 27.58 20.51 52.85 59.74 71.16 30.72 14.34 70.32 23.52 112.96 26.34-15.31 13.15-23.64 28.51-24.06 45.12-0.71 27.58 20.51 52.85 59.74 71.16 34.79 16.24 80.98 25.87 130.07 27.13 3.64 0.09 7.26 0.14 10.88 0.14 45.06 0 87.47-7.21 120.41-20.58 40.12-16.28 62.6-40.43 63.3-68.01 0.01-0.41 0-0.82 0-1.23L912.43 917c3.3 3.16 7.54 4.74 11.77 4.74 4.47 0 8.93-1.75 12.27-5.23 6.49-6.85 6.27-17.61-0.51-24.12z m-423.7-358.17c0.21-8.11-1.49-16.01-4.98-23.6 6.62 2.71 13.42 4.11 20.32 4.11 1.15 0 2.31-0.04 3.47-0.12 16.57-1.11 31.58-10.07 44.08-25.91 4.58 42.48 15.39 81.67 30.98 111.77 1.96 3.78 3.98 7.38 6.06 10.8-3.51-1.93-7.19-3.8-11.05-5.6-30.72-14.34-70.32-23.52-112.96-26.34 15.32-13.15 23.65-28.51 24.08-45.11z m148.63 142.61c0.21-8.11-1.49-16.01-4.98-23.6 6.62 2.71 13.42 4.11 20.32 4.11 1.15 0 2.31-0.04 3.47-0.12 16.57-1.11 31.58-10.07 44.08-25.91 4.58 42.48 15.39 81.67 30.98 111.77 1.96 3.78 3.98 7.38 6.06 10.8-3.51-1.93-7.19-3.8-11.05-5.6-30.72-14.34-70.32-23.52-112.96-26.34 15.32-13.14 23.65-28.5 24.08-45.11z m108.42-183.12c9.48-26.44 22.78-42.74 35.59-43.59 0.36-0.02 0.73-0.04 1.09-0.04 12.58 0 27.44 14.26 40 38.49 15.56 30.03 25.76 71.04 28.74 115.46 2.98 44.43-1.67 86.43-13.08 118.26-9.48 26.44-22.78 42.74-35.59 43.59-12.82 0.87-28.17-13.52-41.09-38.46-15.56-30.03-25.76-71.04-28.74-115.46-2.98-44.41 1.67-86.41 13.08-118.25zM620.68 351.1c9.48-26.44 22.78-42.74 35.59-43.59 0.36-0.02 0.73-0.04 1.09-0.04 12.58 0 27.44 14.26 40 38.49C712.92 376 723.12 417 726.1 461.42c2.98 44.43-1.67 86.43-13.08 118.26-9.48 26.44-22.78 42.74-35.59 43.59-12.81 0.86-28.17-13.52-41.09-38.46-15.56-30.03-25.76-71.04-28.74-115.46-2.98-44.41 1.67-86.41 13.08-118.25zM472.05 208.49c9.48-26.44 22.78-42.74 35.59-43.59 0.36-0.02 0.73-0.04 1.09-0.04 12.58 0 27.44 14.26 40 38.49 15.56 30.03 25.76 71.04 28.74 115.46 2.98 44.43-1.67 86.43-13.08 118.26-9.48 26.44-22.78 42.74-35.59 43.59-12.81 0.85-28.17-13.52-41.09-38.46-15.56-30.03-25.76-71.04-28.74-115.46-2.98-44.41 1.67-86.41 13.08-118.25zM457.5 457.86c1.96 3.78 3.98 7.38 6.06 10.8-3.51-1.93-7.19-3.8-11.05-5.6-1.42-0.66-2.86-1.31-4.32-1.95 2.59-1.84 5.01-3.9 7.24-6.22 0.12-0.13 0.25-0.26 0.37-0.4 0.56 1.14 1.13 2.26 1.7 3.37z m-295.63 67.39c0.33-12.83 16.06-26.8 42.09-37.36 28.95-11.75 66.8-18.09 107.5-18.09 3.36 0 6.74 0.04 10.13 0.13 44.51 1.14 85.9 9.64 116.55 23.95 25.45 11.88 40.45 26.63 40.12 39.46-0.33 12.83-16.06 26.8-42.09 37.36-31.34 12.72-73.12 19.08-117.62 17.96-44.51-1.14-85.9-9.64-116.55-23.95-25.46-11.87-40.46-26.62-40.13-39.46zM310.5 667.87c0.33-12.83 16.06-26.8 42.09-37.36 28.95-11.75 66.8-18.08 107.5-18.08 3.36 0 6.74 0.04 10.13 0.13 44.51 1.14 85.9 9.64 116.55 23.95 25.45 11.88 40.45 26.63 40.12 39.46-0.33 12.83-16.06 26.8-42.09 37.36-31.34 12.72-73.11 19.08-117.62 17.96-44.51-1.14-85.9-9.64-116.55-23.95-25.46-11.89-40.46-26.64-40.13-39.47z m422.93 188.07c-31.34 12.72-73.11 19.08-117.62 17.96-44.51-1.14-85.9-9.64-116.55-23.95-25.45-11.88-40.45-26.63-40.12-39.47 0.33-12.83 16.06-26.8 42.09-37.36 28.95-11.75 66.8-18.08 107.5-18.08 3.36 0 6.74 0.04 10.13 0.13 44.51 1.14 85.9 9.64 116.55 23.95 25.45 11.88 40.45 26.63 40.12 39.46s-16.08 26.8-42.1 37.36z" p-id="1006"></path></svg>