<?xml version="1.0" standalone="no"?><!DOCTYPE svg PUBLIC "-//W3C//DTD SVG 1.1//EN" "http://www.w3.org/Graphics/SVG/1.1/DTD/svg11.dtd"><svg t="1642663909852" class="icon" viewBox="0 0 1024 1024" version="1.1" xmlns="http://www.w3.org/2000/svg" p-id="5509" width="300" height="300" xmlns:xlink="http://www.w3.org/1999/xlink"><defs><style type="text/css"></style></defs><path d="M846.667687 62.365396 174.42817 62.365396c-61.884442 0-112.041796 50.152237-112.041796 112.042819l0 672.239518c0 61.885466 50.152237 112.037702 112.041796 112.037702l672.239518 0c61.885466 0 112.037702-50.15326 112.037702-112.037702L958.70539 174.408215C958.70539 112.517633 908.55213 62.365396 846.667687 62.365396L846.667687 62.365396zM433.288822 226.309282l365.058346 0 0 73.371054L640.579959 299.680337l-10.727319 57.246819L781.68672 356.927155l0 272.596492L701.715341 629.523647 701.715341 428.506401 517.428128 428.506401l0 205.191312-79.936587 0L437.491541 356.927155l102.607936 0 10.712993-57.246819L433.288822 299.680337 433.288822 226.309282 433.288822 226.309282zM371.285676 682.610726c0 24.248264-4.237511 43.436278-12.692067 57.554834-8.454556 14.117532-19.908422 22.974247-34.438347 26.544563-14.494109 3.591805-47.143717 5.359055-97.827049 5.359055-2.795673-23.851221-7.352455-49.700959-13.68672-77.535911 18.278295 1.9934 36.132942 2.977821 53.640688 2.977821 15.929808 0 23.861454-8.728802 23.861454-26.237571L290.143635 314.587861 213.813179 314.587861l0-81.708953 210.550367 0 0 81.708953-53.078893 0L371.284653 682.610726 371.285676 682.610726zM757.821173 792.360316c-39.792285-33.001625-89.577155-70.883397-149.414985-113.614617-26.874067 44.725644-82.630952 83.390245-167.357636 115.995851-12.310374-23.460318-28.240181-49.300846-47.708582-77.536934 42.927695-11.727089 78.691223-27.045983 107.228163-45.924959 28.534893-18.884093 47.408753-44.773739 56.68707-77.688383 9.225105-32.908504 13.863752-75.606978 13.863752-128.10054l78.741365 0c0 58.249659-4.687766 106.674555-14.005992 145.240919 56.059783 35.398208 113.619734 74.464969 172.649152 117.205399L757.821173 792.360316 757.821173 792.360316zM757.821173 792.360316" p-id="5510" fill="#f1af09"></path></svg>